<svg xmlns="http://www.w3.org/2000/svg" id="Camada_2" viewBox="0 0 50 50"><defs><style>.cls-1{fill:none;}.cls-1,.cls-2,.cls-3,.cls-4{stroke-width:0px;}.cls-2{fill:#000;}.cls-3{fill:#fff;}.cls-4{fill:#bb35ff;}</style></defs><g id="Camada_1-2"><rect class="cls-2" width="50" height="50" rx="10" ry="10"></rect><g id="Arte_5"><path class="cls-4" d="M12.75,19.08c.41,0,.75-1.36.75-3.04s-.34-3.04-.75-3.04-.75,1.36-.75,3.04.34,3.04.75,3.04Z"></path><path class="cls-4" d="M34.8,9.9c-.39,0-.74.87-.99,2.27-.39-2.39-1.02-3.96-1.74-3.96-.84,0-1.59,2.21-1.93,5.42-.35-2.33-.86-3.82-1.44-3.82-.81,0-1.5,2.93-1.76,7.01-.48-2.09-1.17-3.41-1.94-3.41s-1.46,1.31-1.94,3.41c-.26-4.08-.95-7.01-1.76-7.01-.58,0-1.1,1.49-1.44,3.83-.35-3.22-1.08-5.43-1.93-5.43-.71,0-1.35,1.57-1.74,3.97-.24-1.4-.59-2.28-.99-2.28-.73,0-1.32,3.05-1.32,6.81s.59,6.8,1.32,6.8c.3,0,.58-.52.8-1.38.35,3.17,1.08,5.35,1.92,5.35.66,0,1.24-1.3,1.63-3.37.27,3.92.95,6.71,1.74,6.71.5,0,.95-1.11,1.29-2.9.4,3.71,1.33,6.31,2.42,6.31s2.02-2.6,2.42-6.31c.34,1.79.79,2.9,1.29,2.9.79,0,1.46-2.79,1.74-6.71.39,2.07.98,3.37,1.63,3.37.84,0,1.58-2.18,1.92-5.35.23.86.5,1.38.8,1.38.73,0,1.32-3.04,1.32-6.8-.02-3.75-.61-6.81-1.33-6.81h0Z"></path><path class="cls-4" d="M37.26,19.08c.41,0,.75-1.36.75-3.04s-.34-3.04-.75-3.04-.75,1.36-.75,3.04.34,3.04.75,3.04Z"></path><rect class="cls-1" x="10.69" y="36.86" width="28.61" height="4.92"></rect><path class="cls-3" d="M16.05,41.78h4.05v-1.32h-2.13v-.61h2.01v-1.09h-2.01v-.57h2.14v-1.32h-4.06v4.92Z"></path><path class="cls-3" d="M20.57,41.78h4.05v-1.32h-2.14v-.61h2.01v-1.09h-2.01v-.57h2.14v-1.32h-4.05v4.92h0Z"></path><path class="cls-3" d="M39.31,41.78c-.27-.75-.66-1.56-1.18-2.45.61-.18.97-.56.97-1.15,0-.89-.83-1.31-2.13-1.31h-2.68v4.92h1.92v-2.04c.42.71.74,1.39.95,2.04h2.17ZM36.21,39.05v-.87h.67c.28,0,.44.15.44.43s-.16.43-.44.43h-.67Z"></path><path class="cls-3" d="M29.78,41.78h4.05v-1.32h-2.14v-.61h2.01v-1.09h-2.01v-.57h2.14v-1.32h-4.05v4.92h0Z"></path><path class="cls-3" d="M25.08,38.19h1.98c-.82.67-1.49,1.43-2.02,2.26v1.32h4.35v-1.32h-2.17c.5-.72,1.19-1.45,2.18-2.26v-1.32h-4.31v1.32h0Z"></path><path class="cls-3" d="M13.16,36.86h-2.47v4.92h2.47c1.53,0,2.61-1.01,2.61-2.46,0-1.45-1.09-2.46-2.61-2.46ZM13.06,40.44h-.45v-2.26h.45c.48,0,.73.32.73,1.13s-.25,1.14-.73,1.14Z"></path></g></g></svg>