<?xml version="1.0" encoding="UTF-8"?>
<svg id="Layer_1" data-name="Layer 1" xmlns="http://www.w3.org/2000/svg" viewBox="0 0 304.05 302.29">
  <defs>
    <style>
      .cls-1, .cls-2 {
        fill: #fff;
      }

      .cls-2 {
        fill-rule: evenodd;
      }

      .cls-3 {
        fill: none;
      }
    </style>
  </defs>
  <path class="cls-2" d="M145.03,29.73c63.48,0,114.94,52.11,114.94,116.38s-51.46,116.38-114.94,116.38S30.09,210.38,30.09,146.11,81.55,29.73,145.03,29.73M152.02,25.8c69.14,0,125.19,56.12,125.19,125.34s-56.05,125.34-125.19,125.34S26.84,220.37,26.84,151.15,82.89,25.8,152.02,25.8Z"/>
  <path class="cls-2" d="M76.96,220.09c2.79,1.67,5.55,3.24,8.26,4.5,2.71,1.26,5.38,2.2,9.4,3.5,4.02,1.31,9.4,2.99,15.05,4.05,5.65,1.06,11.57,1.5,18.11,1.55,6.54.05,13.69-.3,19.98-.91,6.29-.62,11.72-1.5,17.37-2.91,5.65-1.41,11.52-3.33,18.26-5.92,6.73-2.59,14.33-5.85,20.8-9.3,6.46-3.45,11.79-7.1,17.19-11.1,5.4-4,10.88-8.34,15.57-12.8,4.69-4.47,8.59-9.05,11.96-13.62,3.38-4.56,6.24-9.1,8.61-13.49,2.37-4.39,4.24-8.63,5.85-13.49,1.6-4.86,2.94-10.34,3.68-14.97.74-4.64.89-8.44.74-12.29-.15-3.85-.59-7.75-1.33-11.3-.74-3.55-1.78-6.76-3.26-10.34-1.48-3.58-3.4-7.52-5.7-11.03-2.29-3.5-4.96-6.56-8.02-9.37-3.06-2.81-6.51-5.38-9.37-7.47-2.86-2.1-5.13-3.73-7.87-5.23-2.74-1.5-5.95-2.89-9.28-4.22-3.33-1.33-6.78-2.62-10.41-3.68-3.63-1.06-7.43-1.9-12.16-2.59-4.74-.69-10.41-1.23-15.86-1.41s-10.68.02-15.27.35c-4.59.32-8.54.76-13,1.5-4.47.74-9.45,1.78-15.84,3.75-6.39,1.97-14.19,4.88-21.07,7.82-6.88,2.94-12.85,5.9-18.26,9.08-5.4,3.18-10.24,6.59-15.25,10.53-5.01,3.95-10.19,8.44-14.83,13.35-4.64,4.91-8.73,10.24-11.94,14.95-3.21,4.71-5.53,8.81-7.33,12.53-1.8,3.73-3.08,7.08-4.29,10.76-1.21,3.68-2.34,7.67-3.08,12.14-.74,4.47-1.09,9.4-.84,14.28.25,4.88,1.09,9.72,2.42,14.33,1.33,4.61,3.16,9,5.33,12.95,2.17,3.95,4.69,7.45,7.62,10.77,2.94,3.32,6.29,6.45,9.37,8.89,3.08,2.44,5.9,4.19,8.68,5.86M102.41,246.37c2.66.54,5.38.94,9.67,1.26,4.29.32,10.16.57,16.9.47,6.73-.1,14.33-.54,21.27-1.55,6.93-1.01,13.2-2.59,18.95-4.14,5.75-1.55,10.98-3.08,16.45-5.28,5.48-2.2,11.2-5.06,17.02-8.24,5.82-3.18,11.74-6.69,16.78-10.02,5.03-3.33,9.18-6.49,13.47-10.24,4.29-3.75,8.73-8.09,12.45-12.2,3.72-4.1,6.72-7.97,9.68-12.22,2.96-4.24,5.88-8.86,8.3-13.59,2.42-4.73,4.35-9.56,5.93-14.47,1.58-4.91,2.81-9.89,3.26-16.48.44-6.59.1-14.78-.72-21.04-.81-6.27-2.1-10.61-3.75-14.83-1.65-4.22-3.68-8.31-5.95-11.74-2.27-3.43-4.79-6.19-7.35-8.81-2.57-2.61-5.18-5.08-7.92-7.33-2.74-2.25-5.6-4.27-8.88-6.24-3.28-1.97-6.98-3.9-10.88-5.65-3.9-1.75-7.99-3.33-12.29-4.59-4.29-1.26-8.78-2.2-12.46-2.89-3.68-.69-6.54-1.13-9.97-1.5-3.43-.37-7.43-.67-12.01-.79-4.59-.12-9.77-.07-14.93.37-5.16.44-10.29,1.28-15.64,2.24-5.35.96-10.93,2.05-15.99,3.48-5.06,1.43-9.6,3.21-14.21,5.11-4.61,1.9-9.3,3.92-14.53,6.56-5.23,2.64-11,5.9-16.45,9.42-5.45,3.53-10.58,7.33-14.9,10.93-4.32,3.6-7.82,7.01-10.88,10.16-3.06,3.16-5.67,6.07-8.19,8.98-2.52,2.91-4.93,5.82-7.52,9.77-2.59,3.95-5.35,8.93-7.45,13.47-2.1,4.54-3.53,8.63-4.69,12.31-1.16,3.68-2.05,6.93-2.69,10.85-.64,3.92-1.04,8.51-1.23,12.68-.2,4.17-.2,7.92.52,12.14.72,4.22,2.15,8.91,3.55,12.93,1.41,4.02,2.79,7.38,4.76,10.81,1.97,3.43,4.54,6.93,7.57,10.39,3.03,3.45,6.54,6.86,10.16,9.89,3.63,3.03,7.38,5.7,11.87,8.14,4.49,2.44,9.72,4.66,14.01,6.22,4.29,1.55,7.65,2.44,10.63,3.23,2.99.79,5.6,1.48,8.26,2.02Z"/>
  <g>
    <path class="cls-3" d="M116.52,118.04c.56.06,1.13.09,1.71.09,8.88,0,16.07-7.2,16.07-16.07,0-5.57-2.84-10.48-7.14-13.36-2.25-1.51-4.9-2.45-7.75-2.66-.39-.03-.78-.05-1.18-.05-8.88,0-16.07,7.2-16.07,16.07,0,5.76,3.03,10.8,7.58,13.64,2.01,1.25,4.31,2.08,6.78,2.34Z"/>
    <path class="cls-3" d="M188.03,166.04c0-6.41,5.21-11.61,11.68-11.75.45-3.37.85-6.73,1.16-9.93.91-9.2,1.16-17.1,1.09-25.31-.07-8.22-.47-16.75-1.11-23.71-.64-6.96-1.53-12.33-2.96-17.89-1.43-5.55-3.4-11.27-5.5-15.81-2.1-4.54-4.32-7.89-6.54-10.48-2.22-2.59-4.44-4.42-6.59-5.7-2.15-1.28-4.22-2.02-6.24-2.42-2.02-.39-4-.44-6.34,0-2.34.44-5.06,1.38-7.5,2.64-2.44,1.26-4.61,2.84-6.56,4.42-1.95,1.58-3.68,3.16-5.64,5.41-1.96,2.25-4.16,5.17-6.55,8.62-2.39,3.44-4.98,7.4-7.22,11.44-1.18,2.13-2.26,4.29-3.43,6.91,6.68,3.96,11.16,11.25,11.16,19.58,0,12.56-10.17,22.75-22.71,22.75-1.21,0-2.41-.1-3.57-.28-.76,2.92-1.28,5.35-1.81,7.8-.96,4.47-1.95,9-2.86,14.11-.91,5.11-1.75,10.78-2.54,17.39-.79,6.61-1.53,14.16-1.92,20.75-.39,6.59-.44,12.21-.1,18.7.35,6.49,1.09,13.84,2.22,21.09,1.13,7.25,2.66,14.41,4.44,20.08,1.78,5.67,3.8,9.87,6.07,13.54,2.27,3.68,4.79,6.83,7.55,9.05,2.76,2.22,5.77,3.5,8.86,4.05,3.08.54,6.24.35,9.82-.94,3.58-1.28,7.57-3.65,11.55-7.18,3.97-3.53,7.92-8.21,11.57-13.52,3.65-5.3,7.01-11.22,10.16-17.66,3.16-6.44,6.12-13.4,8.59-20.08,2.47-6.69,4.44-13.1,6.12-19.24,1.33-4.86,2.47-9.55,3.62-15.35-4.63-1.61-7.95-5.96-7.95-11.08Z"/>
    <path class="cls-1" d="M201.96,154.46c.11-.72.21-1.45.31-2.18.99-6.94,1.83-14.02,2.33-19.95.51-5.92.68-10.68.75-14.84.07-4.16.05-7.71-.05-12.24-.1-4.53-.27-10.03-.68-15.16-.41-5.13-1.05-9.89-2.01-15.15-.96-5.25-2.25-11-3.64-15.71-1.39-4.71-2.9-8.39-4.9-12.14-2-3.75-4.49-7.57-6.83-10.44-2.34-2.86-4.54-4.76-6.83-6.09-2.29-1.33-4.69-2.1-7.04-2.52-2.36-.42-4.67-.49-6.82-.26-2.15.23-4.12.78-6.34,1.81-2.22,1.04-4.69,2.57-7.5,4.67-2.81,2.11-5.97,4.8-9.21,8.44-3.24,3.64-6.57,8.23-9.07,12.06-2.5,3.83-4.16,6.9-6.22,10.82-1.71,3.26-3.7,7.12-6.4,14-1.17-.19-2.36-.28-3.58-.28-12.54,0-22.71,10.18-22.71,22.75,0,8.8,4.99,16.43,12.29,20.21-1.88,6.65-2.55,9.95-3.23,13.54-.8,4.23-1.62,8.87-2.22,12.9-.6,4.03-1,7.46-1.38,11.26-.38,3.8-.75,7.97-1.07,13.27-.32,5.3-.58,11.72-.64,17.97-.06,6.24.08,12.3.38,17.44.3,5.14.77,9.36,1.61,14.38.84,5.02,2.05,10.84,2.85,14.43.8,3.59,1.2,4.95,1.74,6.61.54,1.67,1.23,3.64,2.21,6.12.97,2.48,2.23,5.46,3.53,7.96,1.3,2.49,2.63,4.49,4.44,6.62,1.81,2.13,4.11,4.4,6.48,6.09,2.37,1.69,4.81,2.8,7.06,3.44,2.24.64,4.29.81,6.51.65,2.22-.16,4.61-.65,6.91-1.48,2.29-.83,4.49-1.99,6.76-3.42,2.27-1.43,4.61-3.13,6.85-5.17,2.23-2.04,4.35-4.4,6.24-6.66,1.89-2.26,3.54-4.4,5.18-6.81,1.64-2.41,3.27-5.07,4.8-7.65,1.53-2.58,2.96-5.07,4.32-7.68,1.36-2.61,2.64-5.35,3.97-8.34,1.33-2.99,2.71-6.22,4.51-10.73,1.8-4.51,4.02-10.31,5.69-15.18,1.67-4.87,2.78-8.82,3.97-13.49.83-3.23,1.69-6.81,2.55-10.73.7.13,1.42.19,2.15.19,6.59,0,11.93-5.26,11.93-11.75,0-5.82-4.3-10.65-9.93-11.58ZM102.16,102.06c0-8.88,7.2-16.07,16.07-16.07.4,0,.79.02,1.18.05,2.86.21,5.5,1.16,7.75,2.66,4.31,2.88,7.14,7.79,7.14,13.36,0,8.88-7.2,16.07-16.07,16.07-.58,0-1.15-.03-1.71-.09-2.47-.26-4.78-1.08-6.78-2.34-4.55-2.84-7.58-7.89-7.58-13.64ZM192.36,192.47c-1.68,6.14-3.65,12.56-6.12,19.24-2.47,6.69-5.43,13.64-8.59,20.08-3.16,6.44-6.51,12.36-10.16,17.66-3.65,5.3-7.6,9.99-11.57,13.52-3.97,3.53-7.97,5.9-11.55,7.18-3.58,1.28-6.73,1.48-9.82.94-3.08-.54-6.09-1.83-8.86-4.05-2.76-2.22-5.28-5.38-7.55-9.05-2.27-3.68-4.29-7.87-6.07-13.54-1.78-5.67-3.31-12.83-4.44-20.08-1.13-7.25-1.87-14.6-2.22-21.09-.35-6.49-.3-12.11.1-18.7.39-6.59,1.13-14.14,1.92-20.75.79-6.61,1.63-12.29,2.54-17.39.91-5.11,1.9-9.65,2.86-14.11.53-2.45,1.05-4.88,1.81-7.8,1.16.18,2.35.28,3.57.28,12.54,0,22.71-10.18,22.71-22.75,0-8.34-4.48-15.62-11.16-19.58,1.18-2.62,2.25-4.78,3.43-6.91,2.23-4.04,4.82-8,7.22-11.44,2.39-3.44,4.59-6.36,6.55-8.62,1.96-2.25,3.69-3.83,5.64-5.41,1.95-1.58,4.12-3.16,6.56-4.42,2.44-1.26,5.16-2.2,7.5-2.64,2.34-.44,4.32-.39,6.34,0,2.02.39,4.1,1.13,6.24,2.42,2.15,1.28,4.37,3.11,6.59,5.7,2.22,2.59,4.44,5.95,6.54,10.48,2.1,4.54,4.07,10.26,5.5,15.81,1.43,5.55,2.32,10.93,2.96,17.89.64,6.96,1.04,15.49,1.11,23.71.07,8.22-.17,16.11-1.09,25.31-.32,3.2-.72,6.57-1.16,9.93-6.47.13-11.68,5.34-11.68,11.75,0,5.11,3.32,9.46,7.95,11.08-1.15,5.8-2.29,10.49-3.62,15.35ZM200.16,173.92c-4.31,0-7.8-3.49-7.8-7.8s3.49-7.8,7.8-7.8,7.8,3.49,7.8,7.8-3.49,7.8-7.8,7.8Z"/>
  </g>
  <g>
    <path class="cls-3" d="M251.48,176.96c-1.92-5.25-4.44-10.39-6.41-14.31-1.97-3.92-3.4-6.64-6.19-10.76-2.79-4.12-6.93-9.65-11.05-14.7-4.12-5.06-8.22-9.65-11.84-13.47-3.63-3.82-6.78-6.88-12.11-11.3-5.33-4.42-12.83-10.19-19.69-15.05-6.86-4.86-13.08-8.81-18.7-12.11-5.62-3.31-10.66-5.97-17.15-8.59-6.49-2.61-14.43-5.18-19.76-6.73-5.33-1.55-8.04-2.1-11.67-2.61-3.63-.52-8.17-1.01-12.51-1.11-4.34-.1-8.49.2-12.46.91-3.97.72-7.77,1.85-10.9,3.18-3.13,1.33-5.6,2.86-7.25,4.07-1.65,1.21-2.49,2.1-3.48,3.08-.99.99-2.12,2.07-3.45,3.92-1.33,1.85-2.86,4.47-4,7.7-1.13,3.23-1.87,7.08-1.78,12.19.1,5.11,1.04,11.47,2.47,17.29,1.27,5.18,2.94,9.93,5.82,15.85.69-.09,1.39-.13,2.1-.13,9.15,0,16.56,7.33,16.56,16.37,0,3.59-1.17,6.91-3.15,9.61,4.72,6.67,9.17,11.86,14.51,17.41,5.55,5.77,12.06,11.94,18.63,17.54,6.56,5.6,13.17,10.63,19.61,14.93,6.44,4.29,12.7,7.85,18.92,11.08,6.22,3.23,12.38,6.14,18.03,8.41,5.65,2.27,10.78,3.9,16.28,5.23,5.5,1.33,11.37,2.37,16.73,2.89,5.35.52,10.19.52,14.58.02,4.39-.49,8.34-1.48,12.16-2.94,3.82-1.46,7.52-3.38,10.61-5.95,3.08-2.57,5.55-5.77,7.43-9.42,1.87-3.65,3.16-7.75,3.68-12.24.52-4.49.27-9.37-.52-14.51-.79-5.13-2.12-10.51-4.05-15.76Z"/>
    <path class="cls-1" d="M257.28,194.73c-.86-5.56-2.31-11.39-4.41-17.08-2.1-5.69-4.84-11.25-6.99-15.5-2.15-4.25-3.71-7.19-6.75-11.65-3.04-4.46-7.56-10.45-12.05-15.93-4.49-5.48-8.96-10.45-12.91-14.59-3.95-4.14-7.4-7.46-13.2-12.24-5.81-4.78-13.99-11.04-21.46-16.3-7.48-5.27-14.25-9.54-20.39-13.12-6.13-3.58-11.62-6.47-18.69-9.3-7.07-2.83-15.73-5.61-21.54-7.3-5.81-1.68-8.77-2.27-12.71-2.85-3.94-.58-8.87-1.16-13.56-1.17-4.69-.02-9.15.53-13.43,1.42-4.28.89-8.38,2.13-11.68,3.6-3.3,1.47-5.79,3.17-8.12,5.08-2.32,1.91-4.48,4.03-6.29,6.54-1.82,2.5-3.3,5.39-4.5,8.86-1.2,3.47-2.13,7.51-2.19,12.93-.06,5.41.74,12.2,2.11,18.43,1.37,6.23,3.3,11.91,7.14,19.48.96,1.9,2.05,3.92,3.22,6-2.47,2.86-3.97,6.57-3.97,10.63,0,9.04,7.41,16.37,16.56,16.37,1.6,0,3.14-.22,4.61-.64,3.38,4.41,6.81,8.43,10.71,12.63,6.01,6.48,13.14,13.42,20.31,19.58,7.17,6.16,14.39,11.52,21.39,16.13,7,4.61,13.78,8.46,20.6,11.9,6.81,3.44,13.65,6.49,19.91,8.97,6.25,2.49,11.92,4.43,17.91,5.92,5.99,1.49,12.31,2.54,18.13,3.02,5.82.48,11.15.39,15.97-.2,4.82-.6,9.14-1.71,13.32-3.36,4.18-1.65,8.23-3.85,11.56-6.74,3.34-2.89,5.97-6.47,7.98-10.49,2.01-4.01,3.41-8.45,3.98-13.31.56-4.86.3-10.16-.56-15.72ZM71.19,162.32c-6.45,0-11.67-5.22-11.67-11.67s5.22-11.67,11.67-11.67,11.67,5.22,11.67,11.67-5.22,11.67-11.67,11.67ZM256.04,207.23c-.52,4.49-1.8,8.59-3.68,12.24-1.87,3.65-4.34,6.86-7.43,9.42-3.08,2.57-6.78,4.49-10.61,5.95-3.82,1.46-7.77,2.44-12.16,2.94-4.39.49-9.23.49-14.58-.02-5.35-.52-11.22-1.55-16.73-2.89-5.5-1.33-10.63-2.96-16.28-5.23-5.65-2.27-11.82-5.18-18.03-8.41-6.22-3.23-12.48-6.78-18.92-11.08-6.44-4.29-13.05-9.33-19.61-14.93-6.56-5.6-13.08-11.77-18.63-17.54-5.34-5.55-9.79-10.74-14.51-17.41,1.98-2.7,3.15-6.02,3.15-9.61,0-9.04-7.41-16.37-16.56-16.37-.71,0-1.41.04-2.1.13-2.89-5.92-4.55-10.67-5.82-15.85-1.43-5.82-2.37-12.19-2.47-17.29-.1-5.11.64-8.96,1.78-12.19,1.13-3.23,2.66-5.85,4-7.7,1.33-1.85,2.47-2.94,3.45-3.92.99-.99,1.83-1.87,3.48-3.08,1.65-1.21,4.12-2.74,7.25-4.07,3.13-1.33,6.93-2.47,10.9-3.18,3.97-.72,8.12-1.01,12.46-.91,4.34.1,8.88.59,12.51,1.11,3.63.52,6.34,1.06,11.67,2.61,5.33,1.55,13.27,4.12,19.76,6.73,6.49,2.61,11.52,5.28,17.15,8.59,5.62,3.31,11.84,7.25,18.7,12.11,6.86,4.86,14.36,10.63,19.69,15.05,5.33,4.42,8.49,7.47,12.11,11.3,3.63,3.82,7.72,8.41,11.84,13.47,4.12,5.06,8.26,10.58,11.05,14.7,2.79,4.12,4.22,6.83,6.19,10.76,1.97,3.92,4.49,9.05,6.41,14.31,1.92,5.25,3.26,10.63,4.05,15.76.79,5.13,1.04,10.02.52,14.51Z"/>
  </g>
</svg>